<?xml version="1.0" encoding="UTF-8"?>
<svg version="1.1" xmlns="http://www.w3.org/2000/svg" width="512" height="128">
<path d="M0 0 C21.78 0 43.56 0 66 0 C66 3.3 66 6.6 66 10 C64.68 10 63.36 10 62 10 C62 25.18 62 40.36 62 56 C62.66 56 63.32 56 64 56 C64 56.66 64 57.32 64 58 C65.32 58 66.64 58 68 58 C68 58.66 68 59.32 68 60 C68.66 60 69.32 60 70 60 C70 60.66 70 61.32 70 62 C70.66 62 71.32 62 72 62 C72 63.32 72 64.64 72 66 C72.66 66 73.32 66 74 66 C74 78.54 74 91.08 74 104 C73.34 104 72.68 104 72 104 C72 105.98 72 107.96 72 110 C71.34 110 70.68 110 70 110 C70 111.32 70 112.64 70 114 C69.34 114 68.68 114 68 114 C68 114.66 68 115.32 68 116 C67.34 116 66.68 116 66 116 C66 116.66 66 117.32 66 118 C65.34 118 64.68 118 64 118 C64 118.66 64 119.32 64 120 C63.34 120 62.68 120 62 120 C62 120.66 62 121.32 62 122 C61.34 122 60.68 122 60 122 C60 122.66 60 123.32 60 124 C58.68 124 57.36 124 56 124 C56 124.66 56 125.32 56 126 C54.02 126 52.04 126 50 126 C50 126.66 50 127.32 50 128 C45.38 128 40.76 128 36 128 C36 127.34 36 126.68 36 126 C34.02 126 32.04 126 30 126 C30 125.34 30 124.68 30 124 C28.68 124 27.36 124 26 124 C26 123.34 26 122.68 26 122 C25.34 122 24.68 122 24 122 C24 121.34 24 120.68 24 120 C23.34 120 22.68 120 22 120 C22 119.34 22 118.68 22 118 C21.34 118 20.68 118 20 118 C20 117.34 20 116.68 20 116 C19.34 116 18.68 116 18 116 C18 115.34 18 114.68 18 114 C17.34 114 16.68 114 16 114 C16 112.68 16 111.36 16 110 C15.34 110 14.68 110 14 110 C14 108.02 14 106.04 14 104 C13.34 104 12.68 104 12 104 C12 103.34 12 102.68 12 102 C10.68 102 9.36 102 8 102 C8 102.66 8 103.32 8 104 C1.4 104 -5.2 104 -12 104 C-12 107.3 -12 110.6 -12 114 C-12.66 114 -13.32 114 -14 114 C-14 115.32 -14 116.64 -14 118 C-14.66 118 -15.32 118 -16 118 C-16 118.66 -16 119.32 -16 120 C-16.66 120 -17.32 120 -18 120 C-18 120.66 -18 121.32 -18 122 C-18.66 122 -19.32 122 -20 122 C-20 122.66 -20 123.32 -20 124 C-20.66 124 -21.32 124 -22 124 C-22 124.66 -22 125.32 -22 126 C-23.32 126 -24.64 126 -26 126 C-26 126.66 -26 127.32 -26 128 C-30.62 128 -35.24 128 -40 128 C-40 127.34 -40 126.68 -40 126 C-41.32 126 -42.64 126 -44 126 C-44 125.34 -44 124.68 -44 124 C-44.66 124 -45.32 124 -46 124 C-46 123.34 -46 122.68 -46 122 C-46.66 122 -47.32 122 -48 122 C-48 121.34 -48 120.68 -48 120 C-48.66 120 -49.32 120 -50 120 C-50 119.34 -50 118.68 -50 118 C-50.66 118 -51.32 118 -52 118 C-52 116.68 -52 115.36 -52 114 C-52.66 114 -53.32 114 -54 114 C-54 109.38 -54 104.76 -54 100 C-53.34 100 -52.68 100 -52 100 C-52 98.02 -52 96.04 -52 94 C-52.66 94 -53.32 94 -54 94 C-54 86.74 -54 79.48 -54 72 C-53.34 72 -52.68 72 -52 72 C-52 71.34 -52 70.68 -52 70 C-51.34 70 -50.68 70 -50 70 C-50 69.34 -50 68.68 -50 68 C-49.34 68 -48.68 68 -48 68 C-48 67.34 -48 66.68 -48 66 C-46.68 66 -45.36 66 -44 66 C-44 65.34 -44 64.68 -44 64 C-43.34 64 -42.68 64 -42 64 C-42 63.34 -42 62.68 -42 62 C-41.34 62 -40.68 62 -40 62 C-40 61.34 -40 60.68 -40 60 C-38.02 60 -36.04 60 -34 60 C-34 59.34 -34 58.68 -34 58 C-32.68 58 -31.36 58 -30 58 C-30 57.34 -30 56.68 -30 56 C-26.7 56 -23.4 56 -20 56 C-20 48.08 -20 40.16 -20 32 C-16.04 32 -12.08 32 -8 32 C-8 39.92 -8 47.84 -8 56 C-4.04 56 -0.08 56 4 56 C4 40.82 4 25.64 4 10 C2.68 10 1.36 10 0 10 C0 6.7 0 3.4 0 0 Z " fill="#990030" transform="translate(310,0)"/>
<path d="M0 0 C21.78 0 43.56 0 66 0 C66 3.3 66 6.6 66 10 C64.68 10 63.36 10 62 10 C62 25.18 62 40.36 62 56 C65.96 56 69.92 56 74 56 C74 48.08 74 40.16 74 32 C77.96 32 81.92 32 86 32 C86 39.92 86 47.84 86 56 C89.3 56 92.6 56 96 56 C96 56.66 96 57.32 96 58 C97.32 58 98.64 58 100 58 C100 58.66 100 59.32 100 60 C101.98 60 103.96 60 106 60 C106 60.66 106 61.32 106 62 C106.66 62 107.32 62 108 62 C108 62.66 108 63.32 108 64 C108.66 64 109.32 64 110 64 C110 64.66 110 65.32 110 66 C111.32 66 112.64 66 114 66 C114 66.66 114 67.32 114 68 C114.66 68 115.32 68 116 68 C116 68.66 116 69.32 116 70 C116.66 70 117.32 70 118 70 C118 70.66 118 71.32 118 72 C118.66 72 119.32 72 120 72 C120 79.26 120 86.52 120 94 C119.34 94 118.68 94 118 94 C118 95.98 118 97.96 118 100 C118.66 100 119.32 100 120 100 C120 104.62 120 109.24 120 114 C119.34 114 118.68 114 118 114 C118 115.32 118 116.64 118 118 C117.34 118 116.68 118 116 118 C116 118.66 116 119.32 116 120 C115.34 120 114.68 120 114 120 C114 120.66 114 121.32 114 122 C113.34 122 112.68 122 112 122 C112 122.66 112 123.32 112 124 C111.34 124 110.68 124 110 124 C110 124.66 110 125.32 110 126 C108.68 126 107.36 126 106 126 C106 126.66 106 127.32 106 128 C101.38 128 96.76 128 92 128 C92 127.34 92 126.68 92 126 C90.68 126 89.36 126 88 126 C88 125.34 88 124.68 88 124 C87.34 124 86.68 124 86 124 C86 123.34 86 122.68 86 122 C85.34 122 84.68 122 84 122 C84 121.34 84 120.68 84 120 C83.34 120 82.68 120 82 120 C82 119.34 82 118.68 82 118 C81.34 118 80.68 118 80 118 C80 116.68 80 115.36 80 114 C79.34 114 78.68 114 78 114 C78 110.7 78 107.4 78 104 C71.4 104 64.8 104 58 104 C58 103.34 58 102.68 58 102 C56.68 102 55.36 102 54 102 C54 102.66 54 103.32 54 104 C53.34 104 52.68 104 52 104 C52 105.98 52 107.96 52 110 C51.34 110 50.68 110 50 110 C50 111.32 50 112.64 50 114 C49.34 114 48.68 114 48 114 C48 114.66 48 115.32 48 116 C47.34 116 46.68 116 46 116 C46 116.66 46 117.32 46 118 C45.34 118 44.68 118 44 118 C44 118.66 44 119.32 44 120 C43.34 120 42.68 120 42 120 C42 120.66 42 121.32 42 122 C41.34 122 40.68 122 40 122 C40 122.66 40 123.32 40 124 C38.68 124 37.36 124 36 124 C36 124.66 36 125.32 36 126 C34.02 126 32.04 126 30 126 C30 126.66 30 127.32 30 128 C25.38 128 20.76 128 16 128 C16 127.34 16 126.68 16 126 C14.02 126 12.04 126 10 126 C10 125.34 10 124.68 10 124 C8.68 124 7.36 124 6 124 C6 123.34 6 122.68 6 122 C5.34 122 4.68 122 4 122 C4 121.34 4 120.68 4 120 C3.34 120 2.68 120 2 120 C2 119.34 2 118.68 2 118 C1.34 118 0.68 118 0 118 C0 117.34 0 116.68 0 116 C-0.66 116 -1.32 116 -2 116 C-2 115.34 -2 114.68 -2 114 C-2.66 114 -3.32 114 -4 114 C-4 112.68 -4 111.36 -4 110 C-4.66 110 -5.32 110 -6 110 C-6 108.02 -6 106.04 -6 104 C-6.66 104 -7.32 104 -8 104 C-8 91.46 -8 78.92 -8 66 C-7.34 66 -6.68 66 -6 66 C-6 64.68 -6 63.36 -6 62 C-5.34 62 -4.68 62 -4 62 C-4 61.34 -4 60.68 -4 60 C-3.34 60 -2.68 60 -2 60 C-2 59.34 -2 58.68 -2 58 C-0.68 58 0.64 58 2 58 C2 57.34 2 56.68 2 56 C2.66 56 3.32 56 4 56 C4 40.82 4 25.64 4 10 C2.68 10 1.36 10 0 10 C0 6.7 0 3.4 0 0 Z " fill="#990030" transform="translate(8,0)"/>
<path d="M0 0 C16.5 0 33 0 50 0 C50 2.64 50 5.28 50 8 C49.34 8 48.68 8 48 8 C48.06919089 13.55056196 48.15730848 19.10039306 48.26245117 24.65039062 C48.29556404 26.53572435 48.32363782 28.42115396 48.34643555 30.30664062 C48.38023376 33.02775672 48.4325603 35.74800488 48.48828125 38.46875 C48.49467117 39.30241089 48.5010611 40.13607178 48.50764465 40.99499512 C48.70530292 48.98579926 50.7293587 54.82062744 56 61 C56 61.66 56 62.32 56 63 C64.25 63 72.5 63 81 63 C81 82.14 81 101.28 81 121 C72.75 121 64.5 121 56 121 C56 117.04 56 113.08 56 109 C35.54 109 15.08 109 -6 109 C-6 112.96 -6 116.92 -6 121 C-14.25 121 -22.5 121 -31 121 C-31 101.86 -31 82.72 -31 63 C-22.75 63 -14.5 63 -6 63 C-5.34 61.35 -4.68 59.7 -4 58 C-3.319375 56.989375 -2.63875 55.97875 -1.9375 54.9375 C0.53466622 51.18937702 1.10724165 48.30166247 1.20532227 43.87402344 C1.22526749 43.07349548 1.24521271 42.27296753 1.26576233 41.44818115 C1.28247482 40.59387512 1.29918732 39.73956909 1.31640625 38.859375 C1.33718735 37.97719299 1.35796844 37.09501099 1.37937927 36.18609619 C1.44464867 33.37414169 1.50365447 30.56209555 1.5625 27.75 C1.60570673 25.84113644 1.64932171 23.93228207 1.69335938 22.0234375 C1.80030687 17.34905174 1.90163785 12.67457398 2 8 C1.34 8 0.68 8 0 8 C0 5.36 0 2.72 0 0 Z M-6 102 C-6 102.99 -6 103.98 -6 105 C-5.34 105 -4.68 105 -4 105 C-4.33 104.01 -4.66 103.02 -5 102 C-5.33 102 -5.66 102 -6 102 Z M55 102 C54.67 102.99 54.34 103.98 54 105 C54.66 105 55.32 105 56 105 C55.67 104.01 55.34 103.02 55 102 Z " fill="#000000" transform="translate(423,7)"/>
<path d="M0 0 C16.5 0 33 0 50 0 C50 2.64 50 5.28 50 8 C48.02 8 46.04 8 44 8 C44.19335938 9.29550781 44.38671875 10.59101563 44.5859375 11.92578125 C44.84988726 13.72121785 45.11283159 15.51680242 45.375 17.3125 C45.51292969 18.25569092 45.65085937 19.19888184 45.79296875 20.1706543 C46.81202637 27.29750996 47.62217425 34.42626591 48.17724609 41.60473633 C48.8616413 49.20490283 50.97135071 55.10434221 56 61 C56 61.66 56 62.32 56 63 C64.25 63 72.5 63 81 63 C81 82.14 81 101.28 81 121 C72.75 121 64.5 121 56 121 C55.67 114.73 55.34 108.46 55 102 C53.68 103.98 52.36 105.96 51 108 C48.61969039 109.19015481 47.10336889 109.15185503 44.44604492 109.19287109 C43.50133835 109.20893402 42.55663177 109.22499695 41.58329773 109.24154663 C37.26086107 109.28597262 32.93857833 109.32706033 28.6159668 109.35009766 C26.33558957 109.36666096 24.05526434 109.39395565 21.77514648 109.43212891 C18.4891463 109.48686781 15.20436334 109.50876757 11.91796875 109.5234375 C10.90010788 109.54610687 9.88224701 109.56877625 8.83354187 109.59213257 C1.73981881 109.57094398 1.73981881 109.57094398 -2.11987305 106.59228516 C-4 104 -4 104 -5 102 C-5.33 108.27 -5.66 114.54 -6 121 C-14.25 121 -22.5 121 -31 121 C-31 101.86 -31 82.72 -31 63 C-22.75 63 -14.5 63 -6 63 C-5.34 61.35 -4.68 59.7 -4 58 C-3.33355469 57.10796875 -2.66710937 56.2159375 -1.98046875 55.296875 C0.59999683 51.00118871 1.08598972 47.16540913 1.6875 42.25 C1.80416016 41.40695313 1.92082031 40.56390625 2.04101562 39.6953125 C2.73187349 34.58998999 3.2600634 29.47492819 3.7565918 24.34765625 C4.10290016 21.00753468 4.57390974 17.69741375 5.0625 14.375 C5.23910156 13.16585938 5.41570312 11.95671875 5.59765625 10.7109375 C5.73042969 9.81632812 5.86320312 8.92171875 6 8 C4.02 8 2.04 8 0 8 C0 5.36 0 2.72 0 0 Z " fill="#990030" transform="translate(167,7)"/>
<path d="M0 0 C16.5 0 33 0 50 0 C50 2.64 50 5.28 50 8 C49.34 8 48.68 8 48 8 C48.06919089 13.55056196 48.15730848 19.10039306 48.26245117 24.65039062 C48.29556404 26.53572435 48.32363782 28.42115396 48.34643555 30.30664062 C48.38023376 33.02775672 48.4325603 35.74800488 48.48828125 38.46875 C48.49467117 39.30241089 48.5010611 40.13607178 48.50764465 40.99499512 C48.70530292 48.98579926 50.7293587 54.82062744 56 61 C56 61.66 56 62.32 56 63 C64.25 63 72.5 63 81 63 C81 65.64 81 68.28 81 71 C72.75 71 64.5 71 56 71 C56 79.91 56 88.82 56 98 C54.03209269 95.04813903 53.66414505 93.88107963 53.2109375 90.5078125 C53.07300781 89.63769531 52.93507813 88.76757812 52.79296875 87.87109375 C52.51599599 86.0513568 52.26048922 84.22821331 52.02734375 82.40234375 C51.23713998 77.26607538 51.23713998 77.26607538 48.06738281 73.35839844 C45.89292671 72.03255776 45.89292671 72.03255776 43.66650391 71.03076172 C43.11655762 70.69061035 42.56661133 70.35045898 42 70 C42 69.01 42 68.02 42 67 C30.78 67 19.56 67 8 67 C8 67.99 8 68.98 8 70 C6.33349609 71.03076172 6.33349609 71.03076172 4.1484375 72.0546875 C1.54476589 73.58659654 0.24819275 74.44875592 -1.00292969 77.22753906 C-1.60899413 79.85787903 -2.03312571 82.44762493 -2.375 85.125 C-2.64822359 86.92010451 -2.9266526 88.71442648 -3.2109375 90.5078125 C-3.37021729 91.69334717 -3.37021729 91.69334717 -3.53271484 92.90283203 C-4 95 -4 95 -6 98 C-6 89.09 -6 80.18 -6 71 C-14.25 71 -22.5 71 -31 71 C-31 68.36 -31 65.72 -31 63 C-22.75 63 -14.5 63 -6 63 C-5.34 61.35 -4.68 59.7 -4 58 C-3.319375 56.989375 -2.63875 55.97875 -1.9375 54.9375 C0.53466622 51.18937702 1.10724165 48.30166247 1.20532227 43.87402344 C1.22526749 43.07349548 1.24521271 42.27296753 1.26576233 41.44818115 C1.28247482 40.59387512 1.29918732 39.73956909 1.31640625 38.859375 C1.33718735 37.97719299 1.35796844 37.09501099 1.37937927 36.18609619 C1.44464867 33.37414169 1.50365447 30.56209555 1.5625 27.75 C1.60570673 25.84113644 1.64932171 23.93228207 1.69335938 22.0234375 C1.80030687 17.34905174 1.90163785 12.67457398 2 8 C1.34 8 0.68 8 0 8 C0 5.36 0 2.72 0 0 Z " fill="#990030" transform="translate(423,7)"/>
<path d="M0 0 C21.78 0 43.56 0 66 0 C66 3.3 66 6.6 66 10 C64.68 10 63.36 10 62 10 C62 25.18 62 40.36 62 56 C49.46 56 36.92 56 24 56 C24 56.66 24 57.32 24 58 C22.02 58 20.04 58 18 58 C18 58.66 18 59.32 18 60 C16.68 60 15.36 60 14 60 C14 60.66 14 61.32 14 62 C12.02 62 10.04 62 8 62 C8 62.66 8 63.32 8 64 C6.68 64 5.36 64 4 64 C4 46.18 4 28.36 4 10 C2.68 10 1.36 10 0 10 C0 6.7 0 3.4 0 0 Z " fill="#990030" transform="translate(310,0)"/>
<path d="M0 0 C21.78 0 43.56 0 66 0 C66 3.3 66 6.6 66 10 C64.68 10 63.36 10 62 10 C62 27.82 62 45.64 62 64 C60.68 64 59.36 64 58 64 C58 63.34 58 62.68 58 62 C56.02 62 54.04 62 52 62 C52 61.34 52 60.68 52 60 C50.68 60 49.36 60 48 60 C48 59.34 48 58.68 48 58 C46.02 58 44.04 58 42 58 C42 57.34 42 56.68 42 56 C29.46 56 16.92 56 4 56 C4 40.82 4 25.64 4 10 C2.68 10 1.36 10 0 10 C0 6.7 0 3.4 0 0 Z " fill="#990030" transform="translate(8,0)"/>
<path d="M0 0 C4.62 0 9.24 0 14 0 C14 0.66 14 1.32 14 2 C15.98 2 17.96 2 20 2 C20 2.66 20 3.32 20 4 C21.32 4 22.64 4 24 4 C24 4.66 24 5.32 24 6 C24.66 6 25.32 6 26 6 C26 6.66 26 7.32 26 8 C26.66 8 27.32 8 28 8 C28 8.66 28 9.32 28 10 C28.66 10 29.32 10 30 10 C30 10.66 30 11.32 30 12 C30.66 12 31.32 12 32 12 C32 12.66 32 13.32 32 14 C32.66 14 33.32 14 34 14 C34 15.32 34 16.64 34 18 C34.66 18 35.32 18 36 18 C36 19.98 36 21.96 36 24 C36.66 24 37.32 24 38 24 C38 28.62 38 33.24 38 38 C37.34 38 36.68 38 36 38 C36 39.98 36 41.96 36 44 C35.34 44 34.68 44 34 44 C34 45.32 34 46.64 34 48 C33.34 48 32.68 48 32 48 C32 48.66 32 49.32 32 50 C31.34 50 30.68 50 30 50 C30 50.66 30 51.32 30 52 C29.34 52 28.68 52 28 52 C28 52.66 28 53.32 28 54 C27.34 54 26.68 54 26 54 C26 54.66 26 55.32 26 56 C25.34 56 24.68 56 24 56 C24 56.66 24 57.32 24 58 C22.68 58 21.36 58 20 58 C20 58.66 20 59.32 20 60 C18.02 60 16.04 60 14 60 C14 60.66 14 61.32 14 62 C9.38 62 4.76 62 0 62 C0 61.34 0 60.68 0 60 C-1.98 60 -3.96 60 -6 60 C-6 59.34 -6 58.68 -6 58 C-7.32 58 -8.64 58 -10 58 C-10 57.34 -10 56.68 -10 56 C-10.66 56 -11.32 56 -12 56 C-12 55.34 -12 54.68 -12 54 C-12.66 54 -13.32 54 -14 54 C-14 53.34 -14 52.68 -14 52 C-14.66 52 -15.32 52 -16 52 C-16 51.34 -16 50.68 -16 50 C-16.66 50 -17.32 50 -18 50 C-18 49.34 -18 48.68 -18 48 C-18.66 48 -19.32 48 -20 48 C-20 46.68 -20 45.36 -20 44 C-20.66 44 -21.32 44 -22 44 C-22 42.02 -22 40.04 -22 38 C-22.66 38 -23.32 38 -24 38 C-24 33.38 -24 28.76 -24 24 C-23.34 24 -22.68 24 -22 24 C-22 22.02 -22 20.04 -22 18 C-21.34 18 -20.68 18 -20 18 C-20 16.68 -20 15.36 -20 14 C-19.34 14 -18.68 14 -18 14 C-18 13.34 -18 12.68 -18 12 C-17.34 12 -16.68 12 -16 12 C-16 11.34 -16 10.68 -16 10 C-15.34 10 -14.68 10 -14 10 C-14 9.34 -14 8.68 -14 8 C-13.34 8 -12.68 8 -12 8 C-12 7.34 -12 6.68 -12 6 C-11.34 6 -10.68 6 -10 6 C-10 5.34 -10 4.68 -10 4 C-8.68 4 -7.36 4 -6 4 C-6 3.34 -6 2.68 -6 2 C-4.02 2 -2.04 2 0 2 C0 1.34 0 0.68 0 0 Z " fill="#000000" transform="translate(346,66)"/>
<path d="M0 0 C4.62 0 9.24 0 14 0 C14 0.66 14 1.32 14 2 C15.98 2 17.96 2 20 2 C20 2.66 20 3.32 20 4 C21.32 4 22.64 4 24 4 C24 4.66 24 5.32 24 6 C24.66 6 25.32 6 26 6 C26 6.66 26 7.32 26 8 C26.66 8 27.32 8 28 8 C28 8.66 28 9.32 28 10 C28.66 10 29.32 10 30 10 C30 10.66 30 11.32 30 12 C30.66 12 31.32 12 32 12 C32 12.66 32 13.32 32 14 C32.66 14 33.32 14 34 14 C34 15.32 34 16.64 34 18 C34.66 18 35.32 18 36 18 C36 19.98 36 21.96 36 24 C36.66 24 37.32 24 38 24 C38 28.62 38 33.24 38 38 C37.34 38 36.68 38 36 38 C36 39.98 36 41.96 36 44 C35.34 44 34.68 44 34 44 C34 45.32 34 46.64 34 48 C33.34 48 32.68 48 32 48 C32 48.66 32 49.32 32 50 C31.34 50 30.68 50 30 50 C30 50.66 30 51.32 30 52 C29.34 52 28.68 52 28 52 C28 52.66 28 53.32 28 54 C27.34 54 26.68 54 26 54 C26 54.66 26 55.32 26 56 C25.34 56 24.68 56 24 56 C24 56.66 24 57.32 24 58 C22.68 58 21.36 58 20 58 C20 58.66 20 59.32 20 60 C18.02 60 16.04 60 14 60 C14 60.66 14 61.32 14 62 C9.38 62 4.76 62 0 62 C0 61.34 0 60.68 0 60 C-1.98 60 -3.96 60 -6 60 C-6 59.34 -6 58.68 -6 58 C-7.32 58 -8.64 58 -10 58 C-10 57.34 -10 56.68 -10 56 C-10.66 56 -11.32 56 -12 56 C-12 55.34 -12 54.68 -12 54 C-12.66 54 -13.32 54 -14 54 C-14 53.34 -14 52.68 -14 52 C-14.66 52 -15.32 52 -16 52 C-16 51.34 -16 50.68 -16 50 C-16.66 50 -17.32 50 -18 50 C-18 49.34 -18 48.68 -18 48 C-18.66 48 -19.32 48 -20 48 C-20 46.68 -20 45.36 -20 44 C-20.66 44 -21.32 44 -22 44 C-22 42.02 -22 40.04 -22 38 C-22.66 38 -23.32 38 -24 38 C-24 33.38 -24 28.76 -24 24 C-23.34 24 -22.68 24 -22 24 C-22 22.02 -22 20.04 -22 18 C-21.34 18 -20.68 18 -20 18 C-20 16.68 -20 15.36 -20 14 C-19.34 14 -18.68 14 -18 14 C-18 13.34 -18 12.68 -18 12 C-17.34 12 -16.68 12 -16 12 C-16 11.34 -16 10.68 -16 10 C-15.34 10 -14.68 10 -14 10 C-14 9.34 -14 8.68 -14 8 C-13.34 8 -12.68 8 -12 8 C-12 7.34 -12 6.68 -12 6 C-11.34 6 -10.68 6 -10 6 C-10 5.34 -10 4.68 -10 4 C-8.68 4 -7.36 4 -6 4 C-6 3.34 -6 2.68 -6 2 C-4.02 2 -2.04 2 0 2 C0 1.34 0 0.68 0 0 Z " fill="#000000" transform="translate(24,66)"/>
<path d="M0 0 C13.86 0 27.72 0 42 0 C42.33 14.19 42.66 28.38 43 43 C28.48 43 13.96 43 -1 43 C-0.67 28.81 -0.34 14.62 0 0 Z " fill="#FFFFFF" transform="translate(427,15)"/>
<path d="M0 0 C14.52 0 29.04 0 44 0 C44.825 3.67125 45.65 7.3425 46.5 11.125 C46.76103516 12.2711377 47.02207031 13.41727539 47.29101562 14.59814453 C47.49404297 15.51708496 47.69707031 16.43602539 47.90625 17.3828125 C48.11572266 18.31496582 48.32519531 19.24711914 48.54101562 20.20751953 C49.03025569 23.18407693 49.07770757 25.98883181 49 29 C50.32 29 51.64 29 53 29 C53 30.32 53 31.64 53 33 C32.54 33 12.08 33 -9 33 C-9 31.68 -9 30.36 -9 29 C-7.68 29 -6.36 29 -5 29 C-4.97421875 28.41476563 -4.9484375 27.82953125 -4.921875 27.2265625 C-4.28935503 17.65251029 -2.16543357 9.74445104 0 0 Z " fill="#474747" transform="translate(426,83)"/>
<path d="M0 0 C11.22 0 22.44 0 34 0 C34.45375 3.609375 34.9075 7.21875 35.375 10.9375 C35.51341309 12.03570068 35.65182617 13.13390137 35.79443359 14.26538086 C36.91076568 23.17217112 37.95106488 32.08405145 39 41 C24.48 41 9.96 41 -5 41 C-3.82050176 30.97426499 -2.63725851 20.95254411 -1.375 10.9375 C-0.92125 7.328125 -0.4675 3.71875 0 0 Z " fill="#FFFFFF" transform="translate(175,17)"/>
<path d="M0 0 C4.62 0 9.24 0 14 0 C14 0.66 14 1.32 14 2 C15.32 2 16.64 2 18 2 C18 2.66 18 3.32 18 4 C18.66 4 19.32 4 20 4 C20 4.66 20 5.32 20 6 C20.66 6 21.32 6 22 6 C22 6.66 22 7.32 22 8 C22.66 8 23.32 8 24 8 C24 8.66 24 9.32 24 10 C24.66 10 25.32 10 26 10 C26 11.32 26 12.64 26 14 C26.66 14 27.32 14 28 14 C28 18.62 28 23.24 28 28 C27.34 28 26.68 28 26 28 C26 29.32 26 30.64 26 32 C25.34 32 24.68 32 24 32 C24 32.66 24 33.32 24 34 C23.34 34 22.68 34 22 34 C22 34.66 22 35.32 22 36 C21.34 36 20.68 36 20 36 C20 36.66 20 37.32 20 38 C19.34 38 18.68 38 18 38 C18 38.66 18 39.32 18 40 C16.68 40 15.36 40 14 40 C14 40.66 14 41.32 14 42 C9.38 42 4.76 42 0 42 C0 41.34 0 40.68 0 40 C-1.32 40 -2.64 40 -4 40 C-4 39.34 -4 38.68 -4 38 C-4.66 38 -5.32 38 -6 38 C-6 37.34 -6 36.68 -6 36 C-6.66 36 -7.32 36 -8 36 C-8 35.34 -8 34.68 -8 34 C-8.66 34 -9.32 34 -10 34 C-10 33.34 -10 32.68 -10 32 C-10.66 32 -11.32 32 -12 32 C-12 30.68 -12 29.36 -12 28 C-12.66 28 -13.32 28 -14 28 C-14 23.38 -14 18.76 -14 14 C-13.34 14 -12.68 14 -12 14 C-12 12.68 -12 11.36 -12 10 C-11.34 10 -10.68 10 -10 10 C-10 9.34 -10 8.68 -10 8 C-9.34 8 -8.68 8 -8 8 C-8 7.34 -8 6.68 -8 6 C-7.34 6 -6.68 6 -6 6 C-6 5.34 -6 4.68 -6 4 C-5.34 4 -4.68 4 -4 4 C-4 3.34 -4 2.68 -4 2 C-2.68 2 -1.36 2 0 2 C0 1.34 0 0.68 0 0 Z " fill="#000000" transform="translate(270,86)"/>
<path d="M0 0 C4.62 0 9.24 0 14 0 C14 0.66 14 1.32 14 2 C15.32 2 16.64 2 18 2 C18 2.66 18 3.32 18 4 C18.66 4 19.32 4 20 4 C20 4.66 20 5.32 20 6 C20.66 6 21.32 6 22 6 C22 6.66 22 7.32 22 8 C22.66 8 23.32 8 24 8 C24 8.66 24 9.32 24 10 C24.66 10 25.32 10 26 10 C26 11.32 26 12.64 26 14 C26.66 14 27.32 14 28 14 C28 18.62 28 23.24 28 28 C27.34 28 26.68 28 26 28 C26 29.32 26 30.64 26 32 C25.34 32 24.68 32 24 32 C24 32.66 24 33.32 24 34 C23.34 34 22.68 34 22 34 C22 34.66 22 35.32 22 36 C21.34 36 20.68 36 20 36 C20 36.66 20 37.32 20 38 C19.34 38 18.68 38 18 38 C18 38.66 18 39.32 18 40 C16.68 40 15.36 40 14 40 C14 40.66 14 41.32 14 42 C9.38 42 4.76 42 0 42 C0 41.34 0 40.68 0 40 C-1.32 40 -2.64 40 -4 40 C-4 39.34 -4 38.68 -4 38 C-4.66 38 -5.32 38 -6 38 C-6 37.34 -6 36.68 -6 36 C-6.66 36 -7.32 36 -8 36 C-8 35.34 -8 34.68 -8 34 C-8.66 34 -9.32 34 -10 34 C-10 33.34 -10 32.68 -10 32 C-10.66 32 -11.32 32 -12 32 C-12 30.68 -12 29.36 -12 28 C-12.66 28 -13.32 28 -14 28 C-14 23.38 -14 18.76 -14 14 C-13.34 14 -12.68 14 -12 14 C-12 12.68 -12 11.36 -12 10 C-11.34 10 -10.68 10 -10 10 C-10 9.34 -10 8.68 -10 8 C-9.34 8 -8.68 8 -8 8 C-8 7.34 -8 6.68 -8 6 C-7.34 6 -6.68 6 -6 6 C-6 5.34 -6 4.68 -6 4 C-5.34 4 -4.68 4 -4 4 C-4 3.34 -4 2.68 -4 2 C-2.68 2 -1.36 2 0 2 C0 1.34 0 0.68 0 0 Z " fill="#000000" transform="translate(100,86)"/>
<path d="M0 0 C8.25 0 16.5 0 25 0 C25 16.5 25 33 25 50 C16.75 50 8.5 50 0 50 C0 33.5 0 17 0 0 Z " fill="#000000" transform="translate(223,78)"/>
<path d="M0 0 C8.25 0 16.5 0 25 0 C25 16.5 25 33 25 50 C16.75 50 8.5 50 0 50 C0 33.5 0 17 0 0 Z " fill="#000000" transform="translate(136,78)"/>
<path d="M0 0 C9.24 0 18.48 0 28 0 C28 13.86 28 27.72 28 42 C24.04 42 20.08 42 16 42 C16 42.66 16 43.32 16 44 C14.02 44 12.04 44 10 44 C10 44.66 10 45.32 10 46 C8.68 46 7.36 46 6 46 C6 46.66 6 47.32 6 48 C4.02 48 2.04 48 0 48 C0 32.16 0 16.32 0 0 Z " fill="#FFFFFF" transform="translate(316,12)"/>
<path d="M0 0 C9.24 0 18.48 0 28 0 C28 15.84 28 31.68 28 48 C26.02 48 24.04 48 22 48 C22 47.34 22 46.68 22 46 C20.68 46 19.36 46 18 46 C18 45.34 18 44.68 18 44 C16.02 44 14.04 44 12 44 C12 43.34 12 42.68 12 42 C8.04 42 4.08 42 0 42 C0 28.14 0 14.28 0 0 Z " fill="#FFFFFF" transform="translate(40,12)"/>
<path d="M0 0 C3.3 0 6.6 0 10 0 C10 0.66 10 1.32 10 2 C11.32 2 12.64 2 14 2 C14 2.66 14 3.32 14 4 C14.66 4 15.32 4 16 4 C16 4.66 16 5.32 16 6 C16.66 6 17.32 6 18 6 C18 6.66 18 7.32 18 8 C18.66 8 19.32 8 20 8 C20 8.66 20 9.32 20 10 C20.66 10 21.32 10 22 10 C22 11.32 22 12.64 22 14 C22.66 14 23.32 14 24 14 C24 18.62 24 23.24 24 28 C23.34 28 22.68 28 22 28 C22 29.32 22 30.64 22 32 C21.34 32 20.68 32 20 32 C20 32.66 20 33.32 20 34 C19.34 34 18.68 34 18 34 C18 34.66 18 35.32 18 36 C17.34 36 16.68 36 16 36 C16 36.66 16 37.32 16 38 C15.34 38 14.68 38 14 38 C14 38.66 14 39.32 14 40 C12.68 40 11.36 40 10 40 C10 40.66 10 41.32 10 42 C6.7 42 3.4 42 0 42 C0 41.34 0 40.68 0 40 C-1.32 40 -2.64 40 -4 40 C-4 39.34 -4 38.68 -4 38 C-4.66 38 -5.32 38 -6 38 C-6 37.34 -6 36.68 -6 36 C-6.66 36 -7.32 36 -8 36 C-8 35.34 -8 34.68 -8 34 C-8.66 34 -9.32 34 -10 34 C-10 33.34 -10 32.68 -10 32 C-10.66 32 -11.32 32 -12 32 C-12 30.68 -12 29.36 -12 28 C-12.66 28 -13.32 28 -14 28 C-14 23.38 -14 18.76 -14 14 C-13.34 14 -12.68 14 -12 14 C-12 12.68 -12 11.36 -12 10 C-11.34 10 -10.68 10 -10 10 C-10 9.34 -10 8.68 -10 8 C-9.34 8 -8.68 8 -8 8 C-8 7.34 -8 6.68 -8 6 C-7.34 6 -6.68 6 -6 6 C-6 5.34 -6 4.68 -6 4 C-5.34 4 -4.68 4 -4 4 C-4 3.34 -4 2.68 -4 2 C-2.68 2 -1.36 2 0 2 C0 1.34 0 0.68 0 0 Z " fill="#B4B4B4" transform="translate(348,76)"/>
<path d="M0 0 C3.3 0 6.6 0 10 0 C10 0.66 10 1.32 10 2 C11.32 2 12.64 2 14 2 C14 2.66 14 3.32 14 4 C14.66 4 15.32 4 16 4 C16 4.66 16 5.32 16 6 C16.66 6 17.32 6 18 6 C18 6.66 18 7.32 18 8 C18.66 8 19.32 8 20 8 C20 8.66 20 9.32 20 10 C20.66 10 21.32 10 22 10 C22 11.32 22 12.64 22 14 C22.66 14 23.32 14 24 14 C24 18.62 24 23.24 24 28 C23.34 28 22.68 28 22 28 C22 29.32 22 30.64 22 32 C21.34 32 20.68 32 20 32 C20 32.66 20 33.32 20 34 C19.34 34 18.68 34 18 34 C18 34.66 18 35.32 18 36 C17.34 36 16.68 36 16 36 C16 36.66 16 37.32 16 38 C15.34 38 14.68 38 14 38 C14 38.66 14 39.32 14 40 C12.68 40 11.36 40 10 40 C10 40.66 10 41.32 10 42 C6.7 42 3.4 42 0 42 C0 41.34 0 40.68 0 40 C-1.32 40 -2.64 40 -4 40 C-4 39.34 -4 38.68 -4 38 C-4.66 38 -5.32 38 -6 38 C-6 37.34 -6 36.68 -6 36 C-6.66 36 -7.32 36 -8 36 C-8 35.34 -8 34.68 -8 34 C-8.66 34 -9.32 34 -10 34 C-10 33.34 -10 32.68 -10 32 C-10.66 32 -11.32 32 -12 32 C-12 30.68 -12 29.36 -12 28 C-12.66 28 -13.32 28 -14 28 C-14 23.38 -14 18.76 -14 14 C-13.34 14 -12.68 14 -12 14 C-12 12.68 -12 11.36 -12 10 C-11.34 10 -10.68 10 -10 10 C-10 9.34 -10 8.68 -10 8 C-9.34 8 -8.68 8 -8 8 C-8 7.34 -8 6.68 -8 6 C-7.34 6 -6.68 6 -6 6 C-6 5.34 -6 4.68 -6 4 C-5.34 4 -4.68 4 -4 4 C-4 3.34 -4 2.68 -4 2 C-2.68 2 -1.36 2 0 2 C0 1.34 0 0.68 0 0 Z " fill="#B4B4B4" transform="translate(26,76)"/>
<path d="M0 0 C7.92 0 15.84 0 24 0 C24 13.86 24 27.72 24 42 C16.08 42 8.16 42 0 42 C0 28.14 0 14.28 0 0 Z " fill="#FFFFFF" transform="translate(346,12)"/>
<path d="M0 0 C7.92 0 15.84 0 24 0 C24 13.86 24 27.72 24 42 C16.08 42 8.16 42 0 42 C0 28.14 0 14.28 0 0 Z " fill="#FFFFFF" transform="translate(14,12)"/>
<path d="M0 0 C16.5 0 33 0 50 0 C50 2.64 50 5.28 50 8 C49.34 8 48.68 8 48 8 C48.06919089 13.55056196 48.15730848 19.10039306 48.26245117 24.65039062 C48.29556404 26.53572435 48.32363782 28.42115396 48.34643555 30.30664062 C48.38023376 33.02775672 48.4325603 35.74800488 48.48828125 38.46875 C48.49467117 39.30241089 48.5010611 40.13607178 48.50764465 40.99499512 C48.70530292 48.98579926 50.7293587 54.82062744 56 61 C56 61.66 56 62.32 56 63 C55.01 63 54.02 63 53 63 C48.10931134 58.10931134 45.88415893 52.04283551 45.65942383 45.23632812 C45.66016238 43.50122967 45.6762828 41.76607614 45.70703125 40.03125 C45.71005249 39.21366211 45.71307373 38.39607422 45.71618652 37.55371094 C45.73173618 34.53567659 45.77361879 31.51782395 45.8125 28.5 C45.874375 21.735 45.93625 14.97 46 8 C32.14 8 18.28 8 4 8 C4.15772957 21.41720103 4.15772957 21.41720103 4.36035156 34.83374023 C4.37204967 36.53368111 4.38223883 38.23363331 4.390625 39.93359375 C4.41108887 40.79440552 4.43155273 41.65521729 4.45263672 42.54211426 C4.45681628 49.90545725 2.23724461 55.33091884 -1.5625 61.5625 C-2.036875 62.036875 -2.51125 62.51125 -3 63 C-3.99 63 -4.98 63 -6 63 C-4.93235269 59.97499929 -3.74105624 57.61550776 -1.9375 54.9375 C0.53466622 51.18937702 1.10724165 48.30166247 1.20532227 43.87402344 C1.22526749 43.07349548 1.24521271 42.27296753 1.26576233 41.44818115 C1.29083107 40.16672211 1.29083107 40.16672211 1.31640625 38.859375 C1.33718735 37.97719299 1.35796844 37.09501099 1.37937927 36.18609619 C1.44464867 33.37414169 1.50365447 30.56209555 1.5625 27.75 C1.60570673 25.84113644 1.64932171 23.93228207 1.69335938 22.0234375 C1.80030687 17.34905174 1.90163785 12.67457398 2 8 C1.34 8 0.68 8 0 8 C0 5.36 0 2.72 0 0 Z " fill="#990030" transform="translate(423,7)"/>
<path d="M0 0 C3.96 0 7.92 0 12 0 C12 15.84 12 31.68 12 48 C8.04 48 4.08 48 0 48 C0 32.16 0 16.32 0 0 Z " fill="#B4B4B4" transform="translate(82,32)"/>
<path d="M0 0 C3.3 0 6.6 0 10 0 C10 0.66 10 1.32 10 2 C10.66 2 11.32 2 12 2 C12 2.66 12 3.32 12 4 C12.66 4 13.32 4 14 4 C14 4.66 14 5.32 14 6 C14.66 6 15.32 6 16 6 C16 6.66 16 7.32 16 8 C16.66 8 17.32 8 18 8 C18 11.3 18 14.6 18 18 C17.34 18 16.68 18 16 18 C16 18.66 16 19.32 16 20 C15.34 20 14.68 20 14 20 C14 20.66 14 21.32 14 22 C13.34 22 12.68 22 12 22 C12 22.66 12 23.32 12 24 C11.34 24 10.68 24 10 24 C10 24.66 10 25.32 10 26 C6.7 26 3.4 26 0 26 C0 25.34 0 24.68 0 24 C-0.66 24 -1.32 24 -2 24 C-2 23.34 -2 22.68 -2 22 C-2.66 22 -3.32 22 -4 22 C-4 21.34 -4 20.68 -4 20 C-4.66 20 -5.32 20 -6 20 C-6 19.34 -6 18.68 -6 18 C-6.66 18 -7.32 18 -8 18 C-8 14.7 -8 11.4 -8 8 C-7.34 8 -6.68 8 -6 8 C-6 7.34 -6 6.68 -6 6 C-5.34 6 -4.68 6 -4 6 C-4 5.34 -4 4.68 -4 4 C-3.34 4 -2.68 4 -2 4 C-2 3.34 -2 2.68 -2 2 C-1.34 2 -0.68 2 0 2 C0 1.34 0 0.68 0 0 Z " fill="#B4B4B4" transform="translate(272,94)"/>
<path d="M0 0 C3.3 0 6.6 0 10 0 C10 0.66 10 1.32 10 2 C10.66 2 11.32 2 12 2 C12 2.66 12 3.32 12 4 C12.66 4 13.32 4 14 4 C14 4.66 14 5.32 14 6 C14.66 6 15.32 6 16 6 C16 6.66 16 7.32 16 8 C16.66 8 17.32 8 18 8 C18 11.3 18 14.6 18 18 C17.34 18 16.68 18 16 18 C16 18.66 16 19.32 16 20 C15.34 20 14.68 20 14 20 C14 20.66 14 21.32 14 22 C13.34 22 12.68 22 12 22 C12 22.66 12 23.32 12 24 C11.34 24 10.68 24 10 24 C10 24.66 10 25.32 10 26 C6.7 26 3.4 26 0 26 C0 25.34 0 24.68 0 24 C-0.66 24 -1.32 24 -2 24 C-2 23.34 -2 22.68 -2 22 C-2.66 22 -3.32 22 -4 22 C-4 21.34 -4 20.68 -4 20 C-4.66 20 -5.32 20 -6 20 C-6 19.34 -6 18.68 -6 18 C-6.66 18 -7.32 18 -8 18 C-8 14.7 -8 11.4 -8 8 C-7.34 8 -6.68 8 -6 8 C-6 7.34 -6 6.68 -6 6 C-5.34 6 -4.68 6 -4 6 C-4 5.34 -4 4.68 -4 4 C-3.34 4 -2.68 4 -2 4 C-2 3.34 -2 2.68 -2 2 C-1.34 2 -0.68 2 0 2 C0 1.34 0 0.68 0 0 Z " fill="#B4B4B4" transform="translate(102,94)"/>
<path d="M0 0 C19.14 0 38.28 0 58 0 C58 15.18 58 30.36 58 46 C45.46 46 32.92 46 20 46 C20 46.66 20 47.32 20 48 C18.02 48 16.04 48 14 48 C14 48.66 14 49.32 14 50 C12.68 50 11.36 50 10 50 C10 50.66 10 51.32 10 52 C8.02 52 6.04 52 4 52 C4 52.66 4 53.32 4 54 C2.68 54 1.36 54 0 54 C0 36.18 0 18.36 0 0 Z M2 2 C2 17.84 2 33.68 2 50 C3.98 50 5.96 50 8 50 C8 49.34 8 48.68 8 48 C9.32 48 10.64 48 12 48 C12 47.34 12 46.68 12 46 C13.98 46 15.96 46 18 46 C18 45.34 18 44.68 18 44 C21.96 44 25.92 44 30 44 C30 30.14 30 16.28 30 2 C20.76 2 11.52 2 2 2 Z M32 2 C32 15.86 32 29.72 32 44 C39.92 44 47.84 44 56 44 C56 30.14 56 16.28 56 2 C48.08 2 40.16 2 32 2 Z " fill="#000000" transform="translate(314,10)"/>
<path d="M0 0 C19.14 0 38.28 0 58 0 C58 17.82 58 35.64 58 54 C56.68 54 55.36 54 54 54 C54 53.34 54 52.68 54 52 C52.02 52 50.04 52 48 52 C48 51.34 48 50.68 48 50 C46.68 50 45.36 50 44 50 C44 49.34 44 48.68 44 48 C42.02 48 40.04 48 38 48 C38 47.34 38 46.68 38 46 C25.46 46 12.92 46 0 46 C0 30.82 0 15.64 0 0 Z M2 2 C2 15.86 2 29.72 2 44 C9.92 44 17.84 44 26 44 C26 30.14 26 16.28 26 2 C18.08 2 10.16 2 2 2 Z M28 2 C28 15.86 28 29.72 28 44 C31.96 44 35.92 44 40 44 C40 44.66 40 45.32 40 46 C41.98 46 43.96 46 46 46 C46 46.66 46 47.32 46 48 C47.32 48 48.64 48 50 48 C50 48.66 50 49.32 50 50 C51.98 50 53.96 50 56 50 C56 34.16 56 18.32 56 2 C46.76 2 37.52 2 28 2 Z " fill="#000000" transform="translate(12,10)"/>
<path d="M0 0 C11.88 0 23.76 0 36 0 C39.375 13.5 39.375 13.5 40.1875 19.25 C40.34605469 20.34828125 40.50460937 21.4465625 40.66796875 22.578125 C40.77753906 23.37734375 40.88710938 24.1765625 41 25 C37.37 25 33.74 25 30 25 C29.97299325 22.08327116 29.95315763 19.16679323 29.9375 16.25 C29.92912109 15.425 29.92074219 14.6 29.91210938 13.75 C29.90888672 12.95078125 29.90566406 12.1515625 29.90234375 11.328125 C29.89710693 10.5949707 29.89187012 9.86181641 29.88647461 9.10644531 C30 7 30 7 31 3 C22.42 3 13.84 3 5 3 C5.33 4.32 5.66 5.64 6 7 C6.07766084 8.44098431 6.10796367 9.88508629 6.09765625 11.328125 C6.09443359 12.12734375 6.09121094 12.9265625 6.08789062 13.75 C6.07951172 14.575 6.07113281 15.4 6.0625 16.25 C6.05798828 17.09046875 6.05347656 17.9309375 6.04882812 18.796875 C6.03707961 20.86461401 6.01914522 22.93231624 6 25 C2.37 25 -1.26 25 -5 25 C-4.73708016 23.08223178 -4.46408331 21.16584537 -4.1875 19.25 C-4.03667969 18.18265625 -3.88585937 17.1153125 -3.73046875 16.015625 C-2.74945553 10.62267529 -1.32944689 5.31778755 0 0 Z " fill="#000000" transform="translate(430,87)"/>
<path d="M0 0 C16.5 0 33 0 50 0 C50 2.64 50 5.28 50 8 C33.5 8 17 8 0 8 C0 5.36 0 2.72 0 0 Z " fill="#990030" transform="translate(167,7)"/>
<path d="M0 0 C12.54 0 25.08 0 38 0 C41.31465228 22.4492359 41.31465228 22.4492359 42.17724609 33.60473633 C42.8616413 41.20490283 44.97135071 47.10434221 50 53 C50 53.66 50 54.32 50 55 C49.01 55 48.02 55 47 55 C39.71608298 47.71608298 39.25510413 38.02231167 38.24267578 28.31933594 C37.98426049 25.84957211 37.70971934 23.3819058 37.43359375 20.9140625 C37.24659294 19.21362977 37.06038079 17.51311011 36.875 15.8125 C36.74339478 14.61016724 36.74339478 14.61016724 36.60913086 13.38354492 C36.52928955 12.62404541 36.44944824 11.8645459 36.3671875 11.08203125 C36.26059814 10.08006714 36.26059814 10.08006714 36.15185547 9.05786133 C35.97867957 6.7110773 36 4.35316493 36 2 C24.78 2 13.56 2 2 2 C1.87625 4.743125 1.7525 7.48625 1.625 10.3125 C1.31146844 16.48896086 0.7420666 22.42612689 -0.5390625 28.48828125 C-1.03863014 31.2105015 -1.21500396 33.86316361 -1.375 36.625 C-1.90158395 43.19789607 -4.22801678 50.22801678 -9 55 C-9.99 55 -10.98 55 -12 55 C-10.96779726 52.07542558 -9.92824698 49.90650794 -8.02734375 47.4296875 C-5.44307595 43.05784333 -4.92203197 39.23096062 -4.3125 34.25 C-4.13750977 32.98542969 -4.13750977 32.98542969 -3.95898438 31.6953125 C-3.39784511 27.54858844 -2.93384808 23.40034819 -2.54296875 19.234375 C-1.87569265 12.80164139 -0.91460723 6.4022506 0 0 Z " fill="#000000" transform="translate(173,15)"/>
<path d="M0 0 C0.804375 -0.00128906 1.60875 -0.00257812 2.4375 -0.00390625 C3.283125 -0.00003906 4.12875 0.00382812 5 0.0078125 C6.2684375 0.00201172 6.2684375 0.00201172 7.5625 -0.00390625 C8.366875 -0.00261719 9.17125 -0.00132813 10 0 C10.7425 0.00112793 11.485 0.00225586 12.25 0.00341797 C14 0.1328125 14 0.1328125 15 1.1328125 C15.08685603 2.69453995 15.10702219 4.26010594 15.09765625 5.82421875 C15.09443359 6.76845703 15.09121094 7.71269531 15.08789062 8.68554688 C15.07951172 9.67876953 15.07113281 10.67199219 15.0625 11.6953125 C15.05798828 12.69240234 15.05347656 13.68949219 15.04882812 14.71679688 C15.03700007 17.18886099 15.02051849 19.66080768 15 22.1328125 C14.01 22.1328125 13.02 22.1328125 12 22.1328125 C11.67 19.1628125 11.34 16.1928125 11 13.1328125 C7.04 13.1328125 3.08 13.1328125 -1 13.1328125 C-1.33 16.1028125 -1.66 19.0728125 -2 22.1328125 C-2.99 22.1328125 -3.98 22.1328125 -5 22.1328125 C-5.02887814 18.65366309 -5.04675687 15.17454419 -5.0625 11.6953125 C-5.07087891 10.70208984 -5.07925781 9.70886719 -5.08789062 8.68554688 C-5.09111328 7.74130859 -5.09433594 6.79707031 -5.09765625 5.82421875 C-5.10289307 4.94967041 -5.10812988 4.07512207 -5.11352539 3.17407227 C-4.91001656 -0.48514775 -3.22095226 0.00489294 0 0 Z " fill="#424242" transform="translate(443,89.8671875)"/>
<path d="M0 0 C3.96 0 7.92 0 12 0 C12 7.92 12 15.84 12 24 C8.04 24 4.08 24 0 24 C0 16.08 0 8.16 0 0 Z " fill="#B4B4B4" transform="translate(290,32)"/>
<path d="M0 0 C9.9 0 19.8 0 30 0 C30 2.31 30 4.62 30 7 C20.1 7 10.2 7 0 7 C0 4.69 0 2.38 0 0 Z " fill="#464646" transform="translate(433,62)"/>
<path d="M0 0 C11.22 0 22.44 0 34 0 C34 3.3 34 6.6 34 10 C22.78 10 11.56 10 0 10 C0 6.7 0 3.4 0 0 Z M2 2 C2 4.31 2 6.62 2 9 C11.9 9 21.8 9 32 9 C32 6.69 32 4.38 32 2 C22.1 2 12.2 2 2 2 Z " fill="#000000" transform="translate(431,60)"/>
<path d="M0 0 C10.56 0 21.12 0 32 0 C32 1.32 32 2.64 32 4 C21.44 4 10.88 4 0 4 C0 2.68 0 1.36 0 0 Z " fill="#000000" transform="translate(176,85)"/>
<path d="M0 0 C10.56 0 21.12 0 32 0 C32 1.32 32 2.64 32 4 C21.44 4 10.88 4 0 4 C0 2.68 0 1.36 0 0 Z " fill="#000000" transform="translate(176,78)"/>
<path d="M0 0 C10.56 0 21.12 0 32 0 C32 1.32 32 2.64 32 4 C21.44 4 10.88 4 0 4 C0 2.68 0 1.36 0 0 Z " fill="#000000" transform="translate(176,71)"/>
<path d="M0 0 C10.56 0 21.12 0 32 0 C32 1.32 32 2.64 32 4 C21.44 4 10.88 4 0 4 C0 2.68 0 1.36 0 0 Z " fill="#000000" transform="translate(176,64)"/>
<path d="M0 0 C0.66 0 1.32 0 2 0 C2.01458252 1.16982422 2.02916504 2.33964844 2.04418945 3.54492188 C2.10246383 7.91371168 2.17969363 12.2820017 2.26245117 16.65039062 C2.29556404 18.53572435 2.32363782 20.42115396 2.34643555 22.30664062 C2.38023376 25.02775672 2.4325603 27.74800488 2.48828125 30.46875 C2.49786613 31.71924133 2.49786613 31.71924133 2.50764465 32.99499512 C2.70530292 40.98579926 4.7293587 46.82062744 10 53 C10 53.66 10 54.32 10 55 C9.01 55 8.02 55 7 55 C2.10931134 50.10931134 -0.11584107 44.04283551 -0.34057617 37.23632812 C-0.34010827 35.50122958 -0.32358372 33.7660785 -0.29296875 32.03125 C-0.28872391 31.11033569 -0.28447906 30.18942139 -0.28010559 29.24060059 C-0.26344065 26.32675755 -0.22581188 23.41363061 -0.1875 20.5 C-0.17243739 18.51303089 -0.15875175 16.52605083 -0.14648438 14.5390625 C-0.11357716 9.69243643 -0.06188031 4.84633922 0 0 Z " fill="#000000" transform="translate(469,15)"/>
<path d="M0 0 C0.66 0 1.32 0 2 0 C2.09944869 5.81660061 2.1717413 11.63269792 2.21972656 17.44995117 C2.23974646 19.4256249 2.26697092 21.40124009 2.30175781 23.37670898 C2.35070207 26.2291515 2.37306525 29.08080549 2.390625 31.93359375 C2.41127014 32.80584091 2.43191528 33.67808807 2.45318604 34.57676697 C2.4558281 41.92422881 0.22848302 47.34528785 -3.5625 53.5625 C-4.036875 54.036875 -4.51125 54.51125 -5 55 C-5.99 55 -6.98 55 -8 55 C-6.93235269 51.97499929 -5.74105624 49.61550776 -3.9375 46.9375 C-1.46533378 43.18937702 -0.89275835 40.30166247 -0.79467773 35.87402344 C-0.77473251 35.07349548 -0.75478729 34.27296753 -0.73423767 33.44818115 C-0.70916893 32.16672211 -0.70916893 32.16672211 -0.68359375 30.859375 C-0.66281265 29.97719299 -0.64203156 29.09501099 -0.62062073 28.18609619 C-0.55535133 25.37414169 -0.49634553 22.56209555 -0.4375 19.75 C-0.39429327 17.84113644 -0.35067829 15.93228207 -0.30664062 14.0234375 C-0.19969313 9.34905174 -0.09836215 4.67457398 0 0 Z " fill="#000000" transform="translate(425,15)"/>
<path d="M0 0 C7.92 0 15.84 0 24 0 C24 1.32 24 2.64 24 4 C16.08 4 8.16 4 0 4 C0 2.68 0 1.36 0 0 Z " fill="#464646" transform="translate(436,77)"/>
<path d="M0 0 C0.33 0 0.66 0 1 0 C1 6.93 1 13.86 1 21 C0.01 21 -0.98 21 -2 21 C-2.22226864 19.23086176 -2.42733873 17.45955629 -2.625 15.6875 C-2.74101562 14.70136719 -2.85703125 13.71523437 -2.9765625 12.69921875 C-3 10 -3 10 -1 7 C-0.60612212 4.67612053 -0.26513915 2.34206251 0 0 Z " fill="#000000" transform="translate(457,91)"/>
<path d="M0 0 C0.33 0 0.66 0 1 0 C1.12375 1.0725 1.2475 2.145 1.375 3.25 C1.75131263 6.8053218 1.75131263 6.8053218 3.0625 8.90625 C4.26750027 11.59741727 4.00679211 13.34837997 3.625 16.25 C3.51414062 17.14203125 3.40328125 18.0340625 3.2890625 18.953125 C3.19367188 19.62859375 3.09828125 20.3040625 3 21 C2.01 21 1.02 21 0 21 C0 14.07 0 7.14 0 0 Z " fill="#000000" transform="translate(438,91)"/>
</svg>
